HIERARCHY
ROOT SimulationBone
{
	OFFSET 0.000000 0.000000 0.000000
	CHANNELS 6 Xposition Yposition Zposition Zrotation Yrotation Xrotation 
	JOINT Hips
	{
		OFFSET 0.000000 0.000000 0.000000
		CHANNELS 6 Xposition Yposition Zposition Zrotation Yrotation Xrotation 
		JOINT LeftUpLeg
		{
			OFFSET 0.103457 1.857824 10.548504
			CHANNELS 3 Zrotation Yrotation Xrotation
			JOINT LeftLeg
			{
				OFFSET 43.500000 -0.000038 -0.000017
				CHANNELS 3 Zrotation Yrotation Xrotation
				JOINT LeftFoot
				{
					OFFSET 42.372200 0.000011 0.000019
					CHANNELS 3 Zrotation Yrotation Xrotation
					JOINT LeftToe
					{
						OFFSET 17.300011 0.000002 -0.000008
						CHANNELS 3 Zrotation Yrotation Xrotation
						End Site
						{
							OFFSET 0.000000 0.000000 0.000000
						}
					}
				}
			}
		}
		JOINT RightUpLeg
		{
			OFFSET 0.103457 1.857822 -10.548492
			CHANNELS 3 Zrotation Yrotation Xrotation
			JOINT RightLeg
			{
				OFFSET 43.500038 -0.000027 0.000036
				CHANNELS 3 Zrotation Yrotation Xrotation
				JOINT RightFoot
				{
					OFFSET 42.372261 0.000015 0.000010
					CHANNELS 3 Zrotation Yrotation Xrotation
					JOINT RightToe
					{
						OFFSET 17.299988 -0.000006 0.000008
						CHANNELS 3 Zrotation Yrotation Xrotation
						End Site
						{
							OFFSET 0.000000 0.000000 0.000000
						}
					}
				}
			}
		}
		JOINT Spine
		{
			OFFSET 6.901965 -2.603737 0.000006
			CHANNELS 3 Zrotation Yrotation Xrotation
			JOINT Spine1
			{
				OFFSET 12.588104 -0.000005 0.000007
				CHANNELS 3 Zrotation Yrotation Xrotation
				JOINT Spine2
				{
					OFFSET 12.343202 0.000026 -0.000008
					CHANNELS 3 Zrotation Yrotation Xrotation
					JOINT Neck
					{
						OFFSET 25.832890 -0.000029 -0.000007
						CHANNELS 3 Zrotation Yrotation Xrotation
						JOINT Head
						{
							OFFSET 11.766619 0.000021 0.000012
							CHANNELS 3 Zrotation Yrotation Xrotation
							End Site
							{
								OFFSET 0.000000 0.000000 0.000000
							}
						}
					}
					JOINT LeftShoulder
					{
						OFFSET 19.745909 -1.480377 6.000106
						CHANNELS 3 Zrotation Yrotation Xrotation
						JOINT LeftArm
						{
							OFFSET 11.284110 -0.000009 -0.000020
							CHANNELS 3 Zrotation Yrotation Xrotation
							JOINT LeftForeArm
							{
								OFFSET 33.000053 0.000014 0.000021
								CHANNELS 3 Zrotation Yrotation Xrotation
								JOINT LeftHand
								{
									OFFSET 25.200008 0.000006 -0.000004
									CHANNELS 3 Zrotation Yrotation Xrotation
									End Site
									{
										OFFSET 0.000000 0.000000 0.000000
									}
								}
							}
						}
					}
					JOINT RightShoulder
					{
						OFFSET 19.746101 -1.480381 -6.000081
						CHANNELS 3 Zrotation Yrotation Xrotation
						JOINT RightArm
						{
							OFFSET 11.284131 -0.000022 0.000003
							CHANNELS 3 Zrotation Yrotation Xrotation
							JOINT RightForeArm
							{
								OFFSET 33.000095 0.000014 0.000005
								CHANNELS 3 Zrotation Yrotation Xrotation
								JOINT RightHand
								{
									OFFSET 25.199774 0.000153 0.000423
									CHANNELS 3 Zrotation Yrotation Xrotation
									End Site
									{
										OFFSET 0.000000 0.000000 0.000000
									}
								}
							}
						}
					}
				}
			}
		}
	}
}
MOTION
Frames: 9
Frame Time: 0.016667
-274.781458 0.000000 395.751196 180.000000 -79.603865 180.000000 -7.279139 75.235001 0.008634 86.140034 2.338827 176.396013 164.285666 -0.459196 171.626808 -100.330403 1.933065 -0.326361 92.310047 0.415560 1.516186 21.454548 0.003090 -0.000000 132.583916 -3.378408 -171.389349 -78.520120 -2.757709 -0.324491 100.409893 -0.005687 -4.062891 21.454558 -0.003114 -0.000016 12.530296 0.377363 -0.420424 15.045324 0.806168 -0.788124 14.727233 0.801543 -0.792975 5.943331 12.384578 24.057043 -26.952274 -27.073831 38.998948 -170.847892 -77.413195 -10.820065 -21.837142 58.137148 22.387730 -51.142693 -20.155390 2.132910 2.443678 -18.407273 8.276157 164.896953 75.115370 -14.023938 -6.397408 -52.158131 -28.542601 -46.059383 22.436009 -2.149890 0.559413 9.842430 -17.966698 
-274.967729 0.000000 399.396119 180.000000 -78.769356 180.000000 -7.373697 76.490523 0.142488 86.126850 1.803277 177.048728 159.172223 -0.723271 171.186051 -101.301412 1.847135 -0.770908 92.492818 0.725765 1.600181 21.454548 0.003086 0.000002 136.068108 -3.006824 -172.138639 -77.142416 -3.178968 -0.195781 101.397826 -0.006266 -3.536251 21.454560 -0.003115 -0.000017 12.430732 0.242868 -0.212963 14.847852 0.511009 -0.392950 14.529761 0.508766 -0.396027 6.467026 12.263664 24.559824 -26.316200 -27.695668 39.535550 -170.560486 -77.367859 -11.113433 -17.472365 58.501729 26.702161 -49.519083 -18.965762 1.995757 2.318097 -16.790020 12.418187 163.545756 75.076431 -15.406046 -7.118984 -51.265357 -26.474166 -51.619301 22.762824 -2.321072 -0.568797 13.439982 -19.594613 
-275.160022 0.000000 403.107250 180.000000 -78.120905 180.000000 -7.486316 77.817284 0.276243 86.205812 1.311965 177.729093 154.237679 -1.082504 171.059684 -100.992501 1.698183 -0.671170 92.744638 0.621821 1.420164 21.454546 0.003087 0.000004 139.849215 -2.516202 -172.955867 -75.306564 -3.406665 -0.113380 102.005200 0.014441 -2.730683 21.454560 -0.003117 -0.000018 12.346056 0.125191 -0.017072 14.679253 0.251470 -0.018112 14.361161 0.251491 -0.019624 7.159099 12.069797 24.978951 -26.112186 -28.309620 40.101132 -169.915038 -77.388709 -11.771982 -12.498740 58.425183 32.608599 -49.201284 -18.471972 1.955927 2.455793 -15.417967 12.585305 162.816887 75.342945 -16.138942 -7.486392 -50.758584 -23.424247 -58.000565 22.153071 -2.546578 -2.046562 13.265201 -22.377066 
-275.357963 0.000000 406.876977 180.000000 -77.641416 180.000000 -7.593582 79.174563 0.402434 86.340666 0.867599 178.412010 149.643134 -1.412956 171.246639 -99.387742 1.410417 -0.249520 92.861793 0.298161 1.154329 21.454544 0.003091 0.000004 143.862215 -1.946155 -173.721516 -73.063373 -3.540585 -0.054259 102.183474 0.040288 -1.828801 21.454558 -0.003117 -0.000018 12.265012 0.019641 0.173880 14.517208 0.017223 0.348835 14.199120 0.019464 0.348736 7.878447 11.833678 25.293448 -26.035413 -28.822718 40.553064 -168.871126 -77.525206 -12.836988 -7.453434 57.907045 39.155142 -49.753987 -18.261103 1.958405 2.636283 -14.492589 10.517010 162.508545 75.807101 -16.433171 -7.598383 -50.535700 -19.888790 -64.600391 20.801445 -2.730345 -3.451249 11.322228 -25.490174 
-275.561178 0.000000 410.697685 180.000000 -77.316345 180.000000 -7.672373 80.521637 0.512522 86.495065 0.474944 179.070519 145.556617 -1.597193 171.727580 -96.470609 0.893255 0.259798 92.639344 -0.053492 0.984492 21.454545 0.003096 0.000003 148.046590 -1.353600 -174.323134 -70.463140 -3.681314 -0.000077 101.883499 0.061101 -1.013699 21.454558 -0.003114 -0.000018 12.176288 -0.078377 0.366585 14.339151 -0.201687 0.720598 14.021074 -0.197196 0.721816 8.485042 11.588367 25.484190 -25.773836 -29.146144 40.740138 -167.350098 -77.824413 -14.387948 -2.822630 57.066679 45.441591 -50.750688 -17.917770 1.969515 2.768388 -14.216994 7.907607 162.454109 76.356572 -16.464112 -7.549644 -50.496503 -16.373257 -70.830898 18.908557 -2.836781 -4.562303 9.675010 -28.251617 
-275.769292 0.000000 414.561764 180.000000 -77.133367 180.000000 -7.695146 81.819988 0.600137 86.645799 0.148606 179.699676 142.133000 -1.562510 172.462527 -92.259847 0.109635 0.661454 91.927507 -0.291799 1.018834 21.454550 0.003100 0.000000 152.362276 -0.793386 -174.686767 -67.556820 -3.881197 0.039628 101.068599 0.083765 -0.358634 21.454560 -0.003108 -0.000017 12.070260 -0.167963 0.563119 14.125850 -0.403538 1.101472 13.807799 -0.396744 1.103897 8.920312 11.350745 25.540336 -25.176017 -29.220209 40.577053 -165.263312 -78.310829 -16.513254 1.120784 56.108398 50.882549 -51.816737 -17.181490 1.958539 2.829775 -14.614986 6.173874 162.446596 76.880841 -16.447991 -7.374150 -50.522565 -13.260119 -76.264751 16.647334 -2.899968 -5.361822 9.743665 -30.240147 
-275.981932 0.000000 418.461599 180.000000 -77.082069 180.000000 -7.616229 83.039909 0.669357 86.822413 -0.063606 -179.612480 139.451944 -1.382695 173.381388 -86.925132 -0.791505 0.990769 90.809775 -0.478085 1.061397 21.454555 0.003101 -0.000001 156.832399 -0.249202 -174.858375 -64.401457 -3.991916 -0.023032 99.754632 0.188324 0.501321 21.454562 -0.003105 -0.000017 11.944340 -0.226595 0.746883 13.872531 -0.541237 1.461152 13.554525 -0.532267 1.464397 9.448098 11.068796 25.475797 -24.743471 -29.101628 40.255887 -162.697003 -78.931935 -19.122089 4.418744 55.186420 55.624406 -52.792283 -16.409931 1.936856 2.774333 -14.945058 5.704055 162.111082 77.282458 -16.771003 -6.911771 -50.443002 -10.398305 -80.984603 14.098213 -2.936179 -5.687820 10.247306 -31.543558 
-276.198723 0.000000 422.389578 180.000000 -77.153674 180.000000 -7.400212 84.161813 0.727730 87.067677 -0.132433 -178.801696 137.596191 -1.145379 174.360147 -80.600350 -1.636483 1.281000 89.404162 -0.675077 0.868897 21.454555 0.003098 0.000000 161.461365 0.311187 -174.928557 -61.090582 -3.849785 -0.275378 97.954952 0.483570 1.923672 21.454559 -0.003110 -0.000019 11.802156 -0.238395 0.903029 13.587114 -0.581341 1.771753 13.269170 -0.570489 1.775234 10.307905 10.724537 25.312287 -24.931019 -28.893699 39.983947 -159.759930 -79.643999 -22.100987 7.173008 54.407214 59.907326 -53.590306 -15.981501 1.933429 2.549401 -14.504117 6.434702 161.241053 77.493839 -17.646111 -6.080597 -50.129364 -7.634149 -85.084468 11.403316 -2.940870 -5.498958 9.812224 -32.312446 
-276.419291 0.000000 426.338088 180.000000 -77.340812 180.000000 -7.071461 85.197777 0.784508 87.423846 -0.130558 -177.988877 136.735878 -0.817496 175.040004 -73.135206 -2.260076 1.245905 87.726225 -0.727639 0.305022 21.454553 0.003092 0.000001 166.118096 0.890506 -175.073226 -57.857562 -3.460403 -0.789914 95.610695 1.061582 3.809434 21.454555 -0.003117 -0.000020 11.664478 -0.235410 1.042848 13.310971 -0.589411 2.051616 12.993092 -0.576869 2.055145 11.321646 10.503703 25.094568 -25.358162 -28.740346 39.764237 -156.259999 -80.495200 -25.641097 9.450546 53.861176 63.653782 -54.183791 -15.743064 1.939716 2.202006 -13.527946 7.490973 160.581038 77.564094 -18.313970 -5.368921 -49.621716 -5.297236 -88.239309 9.035923 -2.900986 -5.843209 9.399771 -32.678243 
